<?xml version="1.0" encoding="utf-8"?>
<!-- Generator: Adobe Illustrator 22.0.1, SVG Export Plug-In . SVG Version: 6.00 Build 0)  -->
<svg version="1.1" xmlns="http://www.w3.org/2000/svg" xmlns:xlink="http://www.w3.org/1999/xlink" x="0px" y="0px"
	 viewBox="0 0 360 360" style="enable-background:new 0 0 360 360;" xml:space="preserve">
<style type="text/css">
	.st0{fill-rule:evenodd;clip-rule:evenodd;fill:none;stroke:#D9D9D9;stroke-miterlimit:10;}
	.st1{fill:#5E5E5E;}
	.st2{fill:#251200;}
	.st3{fill:none;}
	.st4{font-family:'MyriadPro-Regular';}
	.st5{font-size:12px;}
	.st6{opacity:0.5;fill:#FF5E12;}
</style>
<g id="Calque_1">
	<path d="M59.4,76.8l0.1,0.1c0.3,0.2,0.7,0.5,1.2,0.9c-0.9-0.9-1.3-2.3-1.1-4.2l0.2-1.3c0-0.1,0-0.2-0.1-0.3
		c-0.1-0.1-0.1-0.2-0.1-0.3c0-0.3-0.1-0.4-0.2-0.5c-0.1-0.1-0.1-0.1-0.2-0.2c-0.3-0.3-0.5-0.6-0.6-0.9c-0.3-0.6-0.1-1.4,0.5-2.3
		c0.2-0.3,0.1-0.6-0.1-1s-0.4-0.6-0.4-0.7c0-0.1-0.1-0.2-0.2-0.3c-0.1-0.1-0.2-0.2-0.1-0.3c0-0.2,0-0.3-0.2-0.3
		c-0.1-0.1-0.2-0.1-0.3-0.2c-0.3-0.1-0.4-0.4-0.3-0.7c0-0.3,0-0.6-0.1-0.7c-1.1,1.9-1.6,3.9-1.5,6.2c0.2,2.2,0.9,4.2,2.3,5.8
		l0.1,0.1v0.1h0.1c0.2,0.3,0.4,0.5,0.5,0.6c0.1,0.1,0.2,0.2,0.3,0.3c0.1,0.1,0.2,0.2,0.2,0.2L59.4,76.8z M61.6,78.3l0.4,0.2
		c0.2,0.1,0.4,0.1,0.5,0.2c0.7,0.3,1.4,0.4,2.3,0.5c1.6,0.2,3.1,0,4.4-0.4c1-0.3,1.7-0.7,2.3-1.1c0.1-0.1,0.2-0.3,0.3-0.6
		c0.1-0.4,0.2-0.6,0.2-0.6c0.1-0.2,0.2-0.6,0.2-1.2c0-0.6,0.2-1,0.5-1.3c0.2-0.2,0.3-0.4,0.3-0.6c0-0.2,0-0.4,0-0.6
		C73,72.4,73,72.2,73,72.1c0-0.1,0.1-0.3,0.2-0.7c0.1-0.4,0.1-0.6,0.1-0.9c0-0.1-0.1-0.1-0.2,0s-0.2,0-0.3,0
		c-0.1-0.1-0.2-0.2-0.4-0.2c-0.2,0-0.4,0-0.6,0c-0.2,0-0.4,0.1-0.5,0.1c-0.4-0.1-1-0.5-1.8-1.2c-0.1-0.1-0.1-0.6,0.1-1.4
		c0-0.1,0.1-0.4,0.1-0.8c0-0.4,0.1-0.7,0.2-0.9c0.1-0.2,0.3-0.3,0.7-0.4c0.1,0,0.2-0.1,0.3-0.3c0.1-0.2,0.2-0.3,0.2-0.3
		c0.1,0,0.2-0.1,0.4-0.1c0.2,0,0.3-0.1,0.4-0.1c0.2,0,0.4,0,0.7,0s0.5,0.1,0.7,0.1c0.3,0,0.6,0.2,1.2,0.6c0.1,0.1,0.2,0.2,0.3,0.2
		c0.1,0,0.3,0,0.4,0s0.3,0,0.4,0.1c0.1,0,0.1-0.2-0.1-0.4c-0.1-0.1-0.2-0.1-0.4-0.1c-0.3-0.1-0.7-0.3-1.1-0.8
		c-0.4-0.4-0.7-0.7-0.9-0.8c-0.3-0.1-0.4-0.1-0.6,0l0.1,0.6c0,0-0.2,0.1-0.7,0.3c-0.3,0.1-0.6-0.1-0.9-0.5c-0.2-0.3-0.1-0.5,0.1-0.6
		h0.2c0.1,0,0.1-0.1,0.2-0.1c0.1,0,0.2,0,0.3-0.1c0.1,0,0.2-0.1,0.3-0.1c0.1,0,0.1-0.1,0.2-0.1c0.1-0.1,0.1-0.1,0.2-0.2s0-0.1,0-0.2
		s-0.1-0.2-0.1-0.4c0-0.2-0.1-0.3-0.2-0.4c-0.1,0-0.3-0.1-0.4-0.2c-0.1-0.1-0.3-0.2-0.4-0.2c-0.2,0-0.3-0.3-0.3-0.8
		c0-0.3,0.1-0.4,0.3-0.4c0.1,0,0.1,0,0.2,0c-0.9-0.6-1.9-1-3.1-1.3c-0.1,0.4-0.3,0.6-0.4,0.6c-0.3,0.1-0.4,0.1-0.5,0.2
		c-0.1,0.1-0.2,0.2-0.3,0.3c-0.1,0.2-0.2,0.3-0.3,0.3s-0.2,0.1-0.2,0.2c-0.1,0.1-0.2,0-0.3-0.1c-0.1-0.1-0.2-0.2-0.3-0.5
		c-0.1-0.2-0.1-0.5,0-0.8c0.1-0.3,0.1-0.6,0.1-0.7H66h-0.2c0.3,0.5,0.1,0.8-0.4,1c-0.1,0-0.3,0-0.5-0.1c-0.2-0.1-0.3-0.1-0.5-0.1
		c-0.1,0-0.2,0-0.3-0.1c-0.1-0.1-0.2-0.1-0.3,0c-0.5,0.2-0.7,0.4-0.8,0.6c-0.1,0.3,0,0.5,0.2,0.6c0.2,0.1,0.4,0,0.6-0.2
		c0.5-0.5,0.9-0.6,1.3-0.3c0.2,0.1,0.3,0.4,0.3,0.8c0,0.1,0,0.3,0,0.4c0,0.1-0.1,0.2-0.1,0.3c-0.1,0.1-0.2,0.2-0.3,0.1
		c0,0-0.1,0-0.2-0.1s-0.2-0.1-0.2-0.1c0,0-0.1,0-0.2,0c-0.1,0.1-0.6,0.2-1.6,0.5c-0.2,0-0.5,0.1-0.8,0.2c-0.3,0.1-0.5,0.2-0.6,0.2
		c-0.4,0.1-0.6,0.4-0.6,0.6c0,0.5-0.1,0.8-0.2,0.8c-0.1,0-0.2,0-0.2-0.2c-0.1-0.2-0.2-0.4-0.4-0.6c-0.2-0.2-0.3-0.3-0.6-0.2
		c-0.4,0-0.7,0.2-1,0.5c-0.3,0.3-0.4,0.6-0.3,1c0,0.1,0.2,0.1,0.4,0.2c0.2,0.1,0.4,0.1,0.4,0.2s0,0.2-0.3,0.4c0,0.1,0,0.2,0,0.3
		c0,0.1,0,0.3,0.1,0.5c0,0.2,0.1,0.3,0.1,0.3c0,0.3,0.2,0.4,0.4,0.6c0.3,0.1,0.5,0.1,0.7-0.1c0.2-0.2,0.4-0.2,0.8-0.1
		c1.4,0.8,2.2,1.2,2.4,1.4c0.1,0.1,0.2,0.3,0.4,0.8c0.2,0.4,0.4,0.7,0.5,0.8c0,0,0.2,0.1,0.6,0.3s0.6,0.3,0.8,0.5
		c0.1,0.2,0.2,0.4,0,0.7c-0.1,0.2-0.3,0.4-0.5,0.6c-0.1,0-0.2,0.3-0.4,0.8c-0.2,0.5-0.4,0.7-0.4,0.8c-0.1,0.1-0.4,0.2-0.9,0.4
		c0,0-0.1,0-0.2,0.1c-0.1,0.1-0.1,0.2-0.2,0.3c-0.1,0.1-0.1,0.2-0.1,0.2c-0.1,0.1-0.2,0.2-0.4,0.5c-0.2,0.3-0.4,0.4-0.5,0.5
		c-0.8,0.6-1.1,1.4-1,2.4C61.1,77.8,61.3,78.1,61.6,78.3z M57.5,60.5c2.4-2.4,5.2-3.5,8.5-3.5c3.3,0,6.2,1.2,8.5,3.5
		c2.3,2.3,3.5,5.2,3.5,8.5s-1.2,6.2-3.5,8.5C72.2,79.8,69.3,81,66,81c-3.3,0-6.2-1.2-8.5-3.5C55.2,75.2,54,72.3,54,69
		S55.2,62.9,57.5,60.5z M71.4,62c0.2,0.5,0.3,0.7,0.2,0.8c-0.1,0.1-0.2,0.1-0.3,0.1s-0.3-0.1-0.3-0.3c0-0.1-0.1-0.2-0.1-0.3
		l-0.1-0.2h-0.2c-0.2,0.1-0.3,0-0.3-0.2c0-0.1,0.1-0.1,0.3-0.2c0,0,0-0.1-0.1-0.1c0-0.2,0-0.3,0.2-0.3C70.9,61.4,71.2,61.6,71.4,62z
		"/>
	<path d="M288.6,77.3l-2.9,1.1c-0.1,0-0.1,0-0.2,0c-0.1,0-0.1-0.1-0.1-0.1c-0.2-0.2-0.4-0.5-0.6-0.7s-0.5-0.5-0.9-0.7
		c-0.3-0.2-0.7-0.4-1-0.6c-0.3-0.2-0.6-0.3-0.9-0.4c-0.1,0-0.1,0-0.1-0.1c0,0-0.1-0.1-0.1-0.1l0.2-3l0.8-1.1c0,0,0.4,0,1.1,0.1
		c0.8,0.1,1.7,0.5,2.8,1.3c1.1,0.8,1.8,1.6,2.1,2.3c0.3,0.7,0.4,1,0.4,1L288.6,77.3z M296.5,59.4c-1.3-1-2.4-1.5-3.3-1.6
		c-0.9-0.1-1.5-0.2-1.9-0.1c-0.1,0-0.2,0.1-0.3,0.1c-0.1,0.1-0.1,0.1-0.2,0.2l-9.6,13.2c-0.2,0.3-0.4,0.6-0.5,0.9
		c-0.1,0.3-0.2,0.6-0.2,1l-0.4,7.8c0,0.3,0.1,0.5,0.3,0.7c0.2,0.2,0.5,0.2,0.7,0.1l7.3-2.8c0.3-0.1,0.6-0.3,0.9-0.5
		c0.3-0.2,0.5-0.4,0.7-0.7l9.6-13.2c0.1-0.1,0.1-0.2,0.1-0.3s0-0.2,0-0.3c-0.1-0.4-0.3-0.9-0.7-1.8
		C298.7,61.3,297.8,60.4,296.5,59.4z"/>
	<path d="M344.6,180.5l-4-4.3h4V180.5z M336,186.5c-1.4,0-2.6-0.5-3.6-1.5s-1.5-2.2-1.5-3.6c0-1.4,0.5-2.6,1.5-3.6
		c1-1,2.2-1.5,3.6-1.5s2.6,0.5,3.6,1.5c1,1,1.5,2.2,1.5,3.6c0,1.4-0.5,2.6-1.5,3.6S337.4,186.5,336,186.5z M326.6,188.2
		c-0.2,0-0.4-0.1-0.6-0.3s-0.3-0.4-0.3-0.6v-7.7h1.7v-1.7h-1.7v-0.9c0-0.2,0.1-0.4,0.3-0.6s0.4-0.3,0.6-0.3h4.9
		c-0.1,0.1-0.1,0.1-0.2,0.1c-0.1,0-0.1,0.1-0.2,0.1c-0.7,0.7-1.2,1.4-1.5,2.3c-0.3,0.8-0.5,1.7-0.5,2.6c0,0.9,0.2,1.7,0.5,2.6
		c0.3,0.9,0.8,1.6,1.5,2.3l2,2H326.6z M333.4,172.8h5.1l1.7,1.7h-8.6L333.4,172.8z M346.3,174.5h-3.4l-3.4-3.4h-6.9l-3.4,3.4h-3.4
		c-0.5,0-0.9,0.2-1.2,0.5c-0.3,0.3-0.5,0.7-0.5,1.2v12c0,0.5,0.2,0.9,0.5,1.2c0.3,0.3,0.7,0.5,1.2,0.5h20.6c0.5,0,0.9-0.2,1.2-0.5
		c0.3-0.3,0.5-0.7,0.5-1.2v-12c0-0.5-0.2-0.9-0.5-1.2C347.2,174.7,346.8,174.5,346.3,174.5z M336,177.9c-0.9,0-1.8,0.3-2.4,1
		c-0.7,0.7-1,1.5-1,2.4c0,0.9,0.3,1.8,1,2.4s1.5,1,2.4,1c0.1,0,0.1,0,0.2,0c0.1,0,0.2,0,0.2,0c-0.6-0.1-1.1-0.4-1.6-0.9
		c-0.4-0.5-0.6-1-0.6-1.7c0-0.7,0.3-1.3,0.8-1.8c0.5-0.5,1.1-0.8,1.8-0.8c0.7,0,1.2,0.2,1.7,0.6c0.5,0.4,0.8,0.9,0.9,1.6
		c0-0.1,0-0.1,0-0.2c0-0.1,0-0.2,0-0.2c0-0.9-0.3-1.8-1-2.4C337.8,178.3,336.9,177.9,336,177.9z"/>
	<path d="M297.3,295.5l-1.7-1.7v-3.4l1.7-1.7V295.5z M288.7,286.9c-0.9,0-1.8-0.3-2.4-1s-1-1.5-1-2.4s0.3-1.8,1-2.4s1.5-1,2.4-1
		c0.9,0,1.8,0.3,2.4,1s1,1.5,1,2.4s-0.3,1.8-1,2.4S289.7,286.9,288.7,286.9z M292.1,292.6c-0.4-0.4-0.9-0.9-1.3-1.3
		c-0.4-0.4-0.6-0.6-0.7-0.7c-0.1-0.1-0.2-0.1-0.3-0.2s-0.2-0.1-0.3-0.1h-5.1c-0.2,0-0.4,0.1-0.6,0.3s-0.3,0.4-0.3,0.6v5.1
		c0,0.1,0,0.2,0.1,0.3c0,0.1,0.1,0.2,0.2,0.3c0,0,0.2,0.2,0.7,0.6c0.4,0.4,0.9,0.9,1.4,1.3h-3.1c-0.2,0-0.4-0.1-0.6-0.3
		s-0.3-0.4-0.3-0.6v-8.6c0-0.2,0.1-0.4,0.3-0.6c0.2-0.2,0.4-0.3,0.6-0.3h8.6c0.2,0,0.4,0.1,0.6,0.3c0.2,0.2,0.3,0.4,0.3,0.6V292.6z
		 M288.7,295.5h-3.4v-3.4h3.4V295.5z M280.1,285.2c-0.5,0-0.9,0.2-1.2,0.5c-0.3,0.3-0.5,0.7-0.5,1.2s0.2,0.9,0.5,1.2
		c0.3,0.3,0.7,0.5,1.2,0.5v1.7c-0.9,0-1.8-0.3-2.4-1s-1-1.5-1-2.4c0-0.9,0.3-1.8,1-2.4s1.5-1,2.4-1s1.8,0.3,2.4,1s1,1.5,1,2.4h-1.7
		c0-0.5-0.2-0.9-0.5-1.2C281,285.4,280.6,285.2,280.1,285.2z M297.3,286.9l-3.4,3.4v-1.7c0-0.4-0.1-0.8-0.4-1.1s-0.6-0.5-1-0.6
		c0.4-0.4,0.7-1,1-1.6c0.2-0.6,0.4-1.2,0.4-1.9c0-1.4-0.5-2.6-1.5-3.6s-2.2-1.5-3.6-1.5c-1.4,0-2.5,0.5-3.5,1.4s-1.5,2-1.6,3.4
		c-0.5-0.4-1-0.7-1.6-1c-0.6-0.2-1.2-0.3-1.9-0.3c-1.4,0-2.6,0.5-3.6,1.5s-1.5,2.2-1.5,3.6c0,1.4,0.5,2.6,1.5,3.6
		c1,1,2.2,1.5,3.6,1.5h-1.7v3.4h1.7v3.4c0,0.5,0.2,0.9,0.5,1.2c0.3,0.3,0.7,0.5,1.2,0.5h10.3c0.5,0,0.9-0.2,1.2-0.5
		c0.3-0.3,0.5-0.7,0.5-1.2v-1.7l3.4,3.4h1.7v-13.7H297.3z M288.7,281.8c-0.5,0-0.9,0.2-1.2,0.5s-0.5,0.7-0.5,1.2s0.2,0.9,0.5,1.2
		s0.7,0.5,1.2,0.5s0.9-0.2,1.2-0.5s0.5-0.7,0.5-1.2s-0.2-0.9-0.5-1.2S289.2,281.8,288.7,281.8z"/>
	<path d="M188.2,340.8l-7.6,3.8v-10l8.2-4.1v9.4c0,0.2-0.1,0.4-0.2,0.5C188.6,340.6,188.4,340.7,188.2,340.8z M170.9,340.8
		c-0.1-0.1-0.3-0.3-0.4-0.4c-0.1-0.2-0.1-0.3-0.1-0.5v-9.4l8.2,4.1v10L170.9,340.8z M179.2,325c0,0,0.1-0.1,0.2-0.1
		c0.1,0,0.2,0,0.2,0c0.1,0,0.2,0,0.2,0c0.1,0,0.1,0,0.2,0.1l7.6,3.8l-8,4l-8-4L179.2,325z M189.2,327.4l-8.2-4.1
		c-0.4-0.2-0.8-0.3-1.3-0.3c-0.5,0-1,0.1-1.4,0.3l-8.2,4.1c-0.5,0.3-0.9,0.6-1.2,1.1c-0.3,0.5-0.4,1-0.4,1.6v9.7
		c0,0.6,0.1,1.1,0.4,1.6c0.3,0.5,0.7,0.9,1.3,1.2l8.2,4.1c0.2,0.1,0.4,0.2,0.6,0.2c0.2,0.1,0.5,0.1,0.7,0.1c0.3,0,0.5,0,0.7-0.1
		c0.2-0.1,0.4-0.1,0.6-0.2l8.2-4.1c0.5-0.3,0.9-0.6,1.2-1.1c0.3-0.5,0.5-1,0.5-1.6v-9.7c0-0.6-0.1-1.1-0.4-1.6
		S189.7,327.7,189.2,327.4z"/>
	<path d="M59.7,298.5c-0.1,0.1-0.2,0.3-0.2,0.5s0.1,0.3,0.2,0.5l1.2,1.1c0.1,0.1,0.3,0.2,0.4,0.1s0.3-0.1,0.4-0.2l5.9-5.8l-1.8-2.1
		L59.7,298.5z M80.4,282.1c0-0.3-0.1-0.4-0.3-0.4c-0.1,0-0.2,0.1-0.3,0.2c-0.1,0.1-0.3,0.4-0.5,0.8s-0.5,0.7-0.6,1
		c-0.1,0.2-0.4,0.5-0.8,0.8c-0.4,0.3-0.9,0.2-1.6-0.3c-0.7-0.5-1-0.9-0.9-1.3s0.2-0.6,0.3-0.8c0.1-0.2,0.3-0.6,0.6-1.1
		s0.4-0.8,0.5-0.8c0.1-0.1,0.1-0.2,0-0.4c-0.1-0.2-0.2-0.2-0.4-0.1c-0.2,0.1-0.8,0.4-1.7,0.9c-0.9,0.5-1.5,1.1-1.7,1.8
		c-0.2,0.8-0.2,1.5-0.2,2.2s-0.2,1.4-0.9,2l-1.6,1.7l1.6,1.9l2-1.9c0.2-0.3,0.6-0.5,1-0.6s0.9-0.2,1.4-0.1c1,0.2,1.8,0.2,2.3-0.1
		c0.6-0.3,1-0.8,1.3-1.4c0.3-0.5,0.5-1.3,0.5-2.2C80.5,283,80.4,282.4,80.4,282.1z M67.1,286.9c-0.1-0.1-0.2-0.1-0.2-0.1
		s-0.2,0-0.2,0.1l-1.7,1.5c-0.1,0.1-0.1,0.1-0.1,0.2c0,0.1,0,0.2,0.1,0.3l10,11.4c0.1,0.1,0.3,0.2,0.4,0.2s0.3,0,0.5-0.1l1.2-1
		c0.1-0.1,0.2-0.3,0.2-0.4s0-0.3-0.2-0.5L67.1,286.9z M60.2,286.3c0.5-0.4,1.1-0.5,1.6-0.3c0.5,0.3,1.1,0.7,1.7,1.5
		c0.1,0.1,0.1,0.1,0.2,0c0.1-0.1,0.2-0.1,0.2-0.2c0.1,0,0.4-0.3,0.9-0.8c0.6-0.5,0.9-0.8,0.9-0.8c0,0,0.1-0.1,0.1-0.1
		c0-0.1,0-0.1-0.1-0.2c-0.1-0.1-0.2-0.2-0.4-0.5s-0.4-0.5-0.5-0.7c-0.5-0.7-0.6-1.4,0-1.9s1.2-1.1,2-1.5c0.8-0.4,1.5-0.8,2.2-1
		c0.7-0.2,0.8-0.4,0.5-0.4c-0.3,0-0.9,0-1.9,0c-0.9,0-1.5,0-1.7,0c-0.8,0.1-1.6,0.4-2.4,0.9c-0.9,0.5-1.5,1-2,1.3
		c-0.6,0.4-1.1,0.8-1.4,1c-0.3,0.3-0.4,0.4-0.5,0.4c-0.2,0.2-0.3,0.4-0.3,0.7c0,0.3-0.1,0.6-0.4,0.9c-0.4,0.3-0.7,0.4-0.9,0.4
		c-0.2-0.1-0.4,0-0.6,0.1c-0.1,0.1-0.3,0.2-0.5,0.4s-0.4,0.3-0.4,0.4c-0.1,0.1-0.1,0.1-0.1,0.3c0,0.1,0,0.2,0.1,0.3
		c0,0,0.3,0.3,0.8,0.9c0.5,0.6,0.8,0.9,0.9,1c0.1,0.1,0.2,0.1,0.3,0.2c0.1,0,0.3,0,0.4-0.1c0.1-0.1,0.3-0.2,0.5-0.4
		c0.2-0.2,0.3-0.3,0.4-0.3c0,0,0.1-0.2,0.1-0.6C59.8,286.7,59.9,286.5,60.2,286.3z"/>
	<path d="M29.1,184.4h-6.9v-1.7h6.9V184.4z M15.4,182.7l3.4-3.4l-3.4-3.4l1.7-1.7l5.1,5.1l-5.1,5.1L15.4,182.7z M34.3,170.7H13.7
		c-0.5,0-0.9,0.2-1.2,0.5s-0.5,0.7-0.5,1.2v17.1c0,0.5,0.2,0.9,0.5,1.2c0.3,0.3,0.7,0.5,1.2,0.5h20.6c0.5,0,0.9-0.2,1.2-0.5
		c0.3-0.3,0.5-0.7,0.5-1.2v-17.1c0-0.5-0.2-0.9-0.5-1.2S34.8,170.7,34.3,170.7z"/>
	<path d="M186.1,27.6c-0.9,0-1.7-0.3-2.3-1c-0.6-0.6-1-1.4-1-2.3s0.3-1.7,1-2.3c0.6-0.6,1.4-1,2.3-1s1.7,0.3,2.3,1
		c0.6,0.6,1,1.4,1,2.3s-0.3,1.7-1,2.3C187.7,27.3,186.9,27.6,186.1,27.6z M177.4,27.6c-0.9,0-1.7-0.3-2.3-1c-0.6-0.6-1-1.4-1-2.3
		s0.3-1.7,1-2.3c0.6-0.6,1.4-1,2.3-1s1.6,0.3,2.3,1s0.9,1.4,0.9,2.3s-0.3,1.7-0.9,2.3S178.3,27.6,177.4,27.6z M177.4,29.8
		c1,0,2,0.1,3.1,0.4c1.1,0.3,2.2,0.7,3.1,1.3c0.9,0.6,1.4,1.3,1.4,2.1v2.7h-15.3v-2.7c0-0.8,0.5-1.5,1.4-2.1c1-0.6,2-1.1,3.1-1.3
		C175.4,29.9,176.4,29.8,177.4,29.8z M186.1,29.8c1,0,2,0.1,3.1,0.4c1.1,0.3,2.2,0.7,3.1,1.3c1,0.6,1.4,1.3,1.4,2.1v2.7h-6.5v-2.7
		c0-1.5-0.7-2.8-2.1-3.8C185.3,29.8,185.6,29.8,186.1,29.8z"/>
	<line class="st0" x1="179.5" y1="44.5" x2="179.5" y2="315.5"/>
	<line class="st0" x1="274.5" y1="84.5" x2="84.5" y2="275.5"/>
	<line class="st0" x1="84.5" y1="84.5" x2="274.5" y2="275.5"/>
	<line class="st0" x1="315.5" y1="179.5" x2="44.5" y2="179.5"/>
	<g>
		<path d="M180,45.7L275,85l39.3,95L275,275l-95,39.3L85,275l-39.3-95L85,85L180,45.7 M180,44.6L84.3,84.3L44.6,180l39.7,95.7
			l95.7,39.7l95.7-39.7l39.7-95.7l-39.7-95.7L180,44.6L180,44.6z"/>
	</g>
</g>
<g id="Calque_2">
	<polygon class="st1" points="202.5,156.5 276.5,179.5 205.5,205.5 178.5,252.5 86.5,273.5 108.5,179.5 134.5,134.5 179.5,64 	"/>
	<rect x="3" y="310" class="st2" width="12" height="12"/>
	<rect x="19.2" y="310.5" class="st3" width="118.3" height="14.7"/>
	<text transform="matrix(1 0 0 1 19.1724 318.9766)" class="st4 st5">Aujourd’hui</text>
	<polygon class="st6" points="180,65 239,122 297,179 230,232 180,277 87,274 80,181 126,128 	"/>
	<rect x="3" y="335" class="st6" width="12" height="12"/>
	<rect x="19" y="334.1" class="st3" width="75.1" height="13.7"/>
	<text transform="matrix(1 0 0 1 19.0049 342.5752)" class="st4 st5">objectif</text>
</g>
<g id="Calque_3">
</g>
</svg>
